<svg version="1.2" baseProfile="tiny-ps" xmlns="http://www.w3.org/2000/svg" viewBox="0 0 200 75" width="300" height="113">
	<title>New Project</title>
	<style>
		tspan { white-space:pre }
	</style>
	<path id="Core! " fill="#000000" aria-label="Core!"  d="M43.56 11.8C39.21 10 34.86 8.95 30.13 8.95C22.18 8.95 14.16 12.4 8.61 18.1C3.21 23.65 0.28 31.08 0.28 38.8C0.28 47.2 3.13 54.55 9.36 60.17C15.21 65.5 22.71 68.5 30.58 68.5C35.16 68.5 38.68 67.38 43.56 65.88L43.56 48.25C40.48 51.92 35.68 54.25 30.88 54.25C21.73 54.25 15.58 47.8 15.58 38.88C15.58 30.1 21.66 23.2 30.66 23.2C35.68 23.2 40.56 25.38 43.56 29.43ZM72.66 27.25C60.28 27.25 49.48 34.68 49.48 47.8C49.48 60.92 60.36 68.28 72.66 68.28C85.03 68.28 95.83 60.85 95.83 47.8C95.83 34.68 85.03 27.25 72.66 27.25ZM72.66 39.1C78.21 39.1 81.43 43.08 81.43 47.8C81.43 52.67 78.21 56.42 72.66 56.42C67.11 56.42 63.88 52.67 63.88 47.8C63.88 43.08 67.11 39.1 72.66 39.1ZM115.63 28.52L101.98 28.52L101.98 67L115.63 67L115.63 51.48C115.63 44.88 117.51 39.85 125.08 39.85C127.18 39.85 128.98 40.08 130.86 41.13L130.86 28L128.23 28C122.91 28 118.41 30.1 115.78 34.83L115.63 34.83ZM146.98 42.17C147.81 38.2 151.11 36.1 155.08 36.1C158.76 36.1 162.13 38.5 162.81 42.17ZM175.48 48.63C175.48 35.5 167.76 27.25 154.41 27.25C141.88 27.25 133.11 34.98 133.11 47.8C133.11 61.08 142.63 68.28 155.38 68.28C164.16 68.28 172.78 64.15 174.96 55.08L161.83 55.08C160.33 57.63 158.23 58.6 155.31 58.6C149.68 58.6 146.76 55.6 146.76 50.05L175.48 50.05ZM191.61 50.95C186.73 50.95 182.83 54.85 182.83 59.73C182.83 64.53 186.73 68.5 191.61 68.5C196.48 68.5 200.38 64.53 200.38 59.73C200.38 54.85 196.48 50.95 191.61 50.95ZM184.56 47.8L198.73 47.8L198.73 10.45L184.56 10.45Z" />
</svg>