<svg version="1.2" baseProfile="tiny-ps" xmlns="http://www.w3.org/2000/svg" viewBox="0 0 1280 720" width="1280" height="720">
	<title>New Project</title>
	<style>
		tspan { white-space:pre }
	</style>
	<path id="Text layer 1" fill="#000000" aria-label="Core Anime"  d="M153.01 271.86C141.18 266.96 129.35 264.1 116.5 264.1C94.87 264.1 73.04 273.49 57.95 288.99C43.26 304.09 35.3 324.28 35.3 345.3C35.3 368.14 43.06 388.14 59.99 403.44C75.9 417.92 96.3 426.08 117.72 426.08C130.16 426.08 139.75 423.02 153.01 418.94L153.01 371C144.65 381 131.59 387.32 118.54 387.32C93.65 387.32 76.92 369.78 76.92 345.5C76.92 321.63 93.44 302.86 117.92 302.86C131.59 302.86 144.85 308.78 153.01 319.8ZM232.16 313.88C198.5 313.88 169.13 334.08 169.13 369.78C169.13 405.48 198.71 425.47 232.16 425.47C265.82 425.47 295.2 405.27 295.2 369.78C295.2 334.08 265.82 313.88 232.16 313.88ZM232.16 346.11C247.26 346.11 256.03 356.92 256.03 369.78C256.03 383.04 247.26 393.24 232.16 393.24C217.07 393.24 208.3 383.04 208.3 369.78C208.3 356.92 217.07 346.11 232.16 346.11ZM349.06 317.35L311.93 317.35L311.93 422L349.06 422L349.06 379.77C349.06 361.82 354.16 348.15 374.76 348.15C380.47 348.15 385.37 348.76 390.47 351.62L390.47 315.92L383.33 315.92C368.84 315.92 356.6 321.63 349.46 334.48L349.06 334.48ZM434.33 354.48C436.57 343.66 445.55 337.95 456.36 337.95C466.36 337.95 475.54 344.48 477.37 354.48ZM511.85 372.02C511.85 336.32 490.84 313.88 454.52 313.88C420.46 313.88 396.59 334.89 396.59 369.78C396.59 405.88 422.5 425.47 457.18 425.47C481.04 425.47 504.5 414.25 510.42 389.56L474.72 389.56C470.64 396.5 464.93 399.15 456.97 399.15C441.67 399.15 433.72 390.99 433.72 375.9L511.85 375.9ZM693.82 395.28L703.81 422L746.45 422L688.51 268.18L644.86 268.18L585.7 422L628.13 422L638.74 395.28ZM683 364.68L649.75 364.68L666.28 315.72L666.68 315.72ZM795.2 317.35L758.08 317.35L758.08 422L795.2 422L795.2 367.74C795.2 354.68 799.49 343.46 814.58 343.46C832.94 343.46 831.31 361 831.31 371L831.31 422L868.44 422L868.44 357.33C868.44 331.63 857.22 313.88 829.07 313.88C814.58 313.88 804.18 318.16 795.61 330.81L795.2 330.81ZM930.05 317.35L892.92 317.35L892.92 422L930.05 422ZM911.48 256.35C900.06 256.35 890.68 265.74 890.68 277.16C890.68 288.58 900.06 297.97 911.48 297.97C922.91 297.97 932.29 288.58 932.29 277.16C932.29 265.74 922.91 256.35 911.48 256.35ZM991.66 317.35L954.53 317.35L954.53 422L991.66 422L991.66 372.02C991.66 360.39 991.66 342.64 1008.18 342.64C1024.7 342.64 1024.7 360.39 1024.7 372.02L1024.7 422L1061.83 422L1061.83 372.02C1061.83 359.58 1062.44 343.46 1079.58 343.46C1095.29 343.46 1094.88 361.21 1094.88 372.02L1094.88 422L1132.01 422L1132.01 355.29C1132.01 331.22 1122.83 313.88 1096.31 313.88C1082.03 313.88 1067.95 320.82 1060.81 333.87C1053.26 320 1040.21 313.88 1025.11 313.88C1011.65 313.88 1000.84 318.78 992.06 330.4L991.66 330.4ZM1186.27 354.48C1188.52 343.66 1197.49 337.95 1208.3 337.95C1218.3 337.95 1227.48 344.48 1229.32 354.48ZM1263.79 372.02C1263.79 336.32 1242.78 313.88 1206.47 313.88C1172.4 313.88 1148.53 334.89 1148.53 369.78C1148.53 405.88 1174.44 425.47 1209.12 425.47C1232.99 425.47 1256.45 414.25 1262.36 389.56L1226.66 389.56C1222.58 396.5 1216.87 399.15 1208.92 399.15C1193.62 399.15 1185.66 390.99 1185.66 375.9L1263.79 375.9Z" />
</svg>